<mxfile host="Electron" agent="Mozilla/5.0 (Windows NT 10.0; Win64; x64) AppleWebKit/537.36 (KHTML, like Gecko) draw.io/24.7.17 Chrome/128.0.6613.36 Electron/32.0.1 Safari/537.36" version="24.7.17">
  <diagram name="Страница — 1" id="hPPcrUByunXkYxeMK2Q-">
    <mxGraphModel dx="2201" dy="-367" grid="0" gridSize="10" guides="1" tooltips="1" connect="1" arrows="1" fold="1" page="0" pageScale="1" pageWidth="827" pageHeight="1169" math="0" shadow="0">
      <root>
        <mxCell id="0" />
        <mxCell id="1" parent="0" />
        <mxCell id="QptM_Gn0P3wr2AVeEs2e-1" style="edgeStyle=orthogonalEdgeStyle;rounded=0;orthogonalLoop=1;jettySize=auto;html=1;entryX=1;entryY=0.5;entryDx=0;entryDy=0;exitX=1;exitY=0.5;exitDx=0;exitDy=0;entryPerimeter=0;" edge="1" parent="1" source="QptM_Gn0P3wr2AVeEs2e-5" target="QptM_Gn0P3wr2AVeEs2e-9">
          <mxGeometry relative="1" as="geometry">
            <mxPoint x="-6.5" y="2090" as="sourcePoint" />
            <mxPoint x="63.5" y="2270" as="targetPoint" />
            <Array as="points">
              <mxPoint x="86" y="2084" />
              <mxPoint x="86" y="2178" />
            </Array>
          </mxGeometry>
        </mxCell>
        <mxCell id="QptM_Gn0P3wr2AVeEs2e-2" value="no" style="edgeLabel;html=1;align=center;verticalAlign=middle;resizable=0;points=[];" vertex="1" connectable="0" parent="QptM_Gn0P3wr2AVeEs2e-1">
          <mxGeometry x="-0.6381" relative="1" as="geometry">
            <mxPoint as="offset" />
          </mxGeometry>
        </mxCell>
        <mxCell id="QptM_Gn0P3wr2AVeEs2e-3" style="edgeStyle=orthogonalEdgeStyle;rounded=0;orthogonalLoop=1;jettySize=auto;html=1;entryX=0;entryY=0.5;entryDx=0;entryDy=0;exitX=0;exitY=0.5;exitDx=0;exitDy=0;entryPerimeter=0;" edge="1" parent="1" source="QptM_Gn0P3wr2AVeEs2e-5" target="QptM_Gn0P3wr2AVeEs2e-8">
          <mxGeometry relative="1" as="geometry">
            <mxPoint x="-286.5" y="2090" as="sourcePoint" />
            <mxPoint x="-361.5" y="2270" as="targetPoint" />
            <Array as="points">
              <mxPoint x="-393" y="2084" />
              <mxPoint x="-393" y="2178" />
            </Array>
          </mxGeometry>
        </mxCell>
        <mxCell id="QptM_Gn0P3wr2AVeEs2e-4" value="yes" style="edgeLabel;html=1;align=center;verticalAlign=middle;resizable=0;points=[];" vertex="1" connectable="0" parent="QptM_Gn0P3wr2AVeEs2e-3">
          <mxGeometry x="-0.5173" y="-4" relative="1" as="geometry">
            <mxPoint as="offset" />
          </mxGeometry>
        </mxCell>
        <mxCell id="QptM_Gn0P3wr2AVeEs2e-5" value="if (scanf_s(&quot;%lf&quot;, &amp;amp;value) != 1)" style="rhombus;whiteSpace=wrap;html=1;" vertex="1" parent="1">
          <mxGeometry x="-290" y="2009" width="290" height="150" as="geometry" />
        </mxCell>
        <mxCell id="QptM_Gn0P3wr2AVeEs2e-6" value="" style="edgeStyle=orthogonalEdgeStyle;rounded=0;orthogonalLoop=1;jettySize=auto;html=1;" edge="1" parent="1" source="QptM_Gn0P3wr2AVeEs2e-7" target="QptM_Gn0P3wr2AVeEs2e-11">
          <mxGeometry relative="1" as="geometry" />
        </mxCell>
        <mxCell id="QptM_Gn0P3wr2AVeEs2e-7" value="&lt;div style=&quot;background-color: rgb(255, 255, 255);&quot;&gt;&lt;pre style=&quot;&quot;&gt;&lt;font style=&quot;&quot;&gt;&lt;font face=&quot;Helvetica&quot;&gt;&lt;span style=&quot;white-space: normal;&quot;&gt;double_input&lt;/span&gt;&lt;/font&gt;&lt;font face=&quot;JetBrains Mono, monospace&quot; color=&quot;#202020&quot;&gt;&lt;br&gt;&lt;/font&gt;&lt;/font&gt;&lt;/pre&gt;&lt;/div&gt;" style="strokeWidth=1;html=1;shape=mxgraph.flowchart.terminator;whiteSpace=wrap;" vertex="1" parent="1">
          <mxGeometry x="-290.5" y="1837" width="291" height="60" as="geometry" />
        </mxCell>
        <mxCell id="QptM_Gn0P3wr2AVeEs2e-8" value="&lt;font style=&quot;font-size: 12px;&quot;&gt;abort();&lt;/font&gt;" style="strokeWidth=1;html=1;shape=mxgraph.flowchart.terminator;whiteSpace=wrap;" vertex="1" parent="1">
          <mxGeometry x="-372" y="2148" width="199" height="60" as="geometry" />
        </mxCell>
        <mxCell id="QptM_Gn0P3wr2AVeEs2e-9" value="&lt;font style=&quot;font-size: 12px;&quot;&gt;return value;&lt;/font&gt;" style="strokeWidth=1;html=1;shape=mxgraph.flowchart.terminator;whiteSpace=wrap;" vertex="1" parent="1">
          <mxGeometry x="-121" y="2148" width="189" height="60" as="geometry" />
        </mxCell>
        <mxCell id="QptM_Gn0P3wr2AVeEs2e-10" value="" style="edgeStyle=orthogonalEdgeStyle;rounded=0;orthogonalLoop=1;jettySize=auto;html=1;" edge="1" parent="1" source="QptM_Gn0P3wr2AVeEs2e-11" target="QptM_Gn0P3wr2AVeEs2e-5">
          <mxGeometry relative="1" as="geometry" />
        </mxCell>
        <mxCell id="QptM_Gn0P3wr2AVeEs2e-11" value="double value = 0;" style="rounded=0;whiteSpace=wrap;html=1;" vertex="1" parent="1">
          <mxGeometry x="-292" y="1923" width="294" height="60" as="geometry" />
        </mxCell>
        <mxCell id="QptM_Gn0P3wr2AVeEs2e-25" value="" style="edgeStyle=orthogonalEdgeStyle;rounded=0;orthogonalLoop=1;jettySize=auto;html=1;" edge="1" parent="1" source="QptM_Gn0P3wr2AVeEs2e-12" target="QptM_Gn0P3wr2AVeEs2e-18">
          <mxGeometry relative="1" as="geometry" />
        </mxCell>
        <mxCell id="QptM_Gn0P3wr2AVeEs2e-12" value="&amp;nbsp;double length = double_input()" style="shape=process;whiteSpace=wrap;html=1;backgroundOutline=1;" vertex="1" parent="1">
          <mxGeometry x="426" y="1594" width="239" height="70" as="geometry" />
        </mxCell>
        <mxCell id="QptM_Gn0P3wr2AVeEs2e-16" value="" style="edgeStyle=orthogonalEdgeStyle;rounded=0;orthogonalLoop=1;jettySize=auto;html=1;" edge="1" parent="1" source="QptM_Gn0P3wr2AVeEs2e-14" target="QptM_Gn0P3wr2AVeEs2e-15">
          <mxGeometry relative="1" as="geometry" />
        </mxCell>
        <mxCell id="QptM_Gn0P3wr2AVeEs2e-14" value="Начало" style="strokeWidth=1;html=1;shape=mxgraph.flowchart.terminator;whiteSpace=wrap;" vertex="1" parent="1">
          <mxGeometry x="423" y="1387" width="245.5" height="60" as="geometry" />
        </mxCell>
        <mxCell id="QptM_Gn0P3wr2AVeEs2e-17" value="" style="edgeStyle=orthogonalEdgeStyle;rounded=0;orthogonalLoop=1;jettySize=auto;html=1;" edge="1" parent="1" source="QptM_Gn0P3wr2AVeEs2e-15" target="QptM_Gn0P3wr2AVeEs2e-12">
          <mxGeometry relative="1" as="geometry" />
        </mxCell>
        <mxCell id="QptM_Gn0P3wr2AVeEs2e-15" value="const double a = 0.9;" style="rounded=0;whiteSpace=wrap;html=1;" vertex="1" parent="1">
          <mxGeometry x="426" y="1494" width="239.5" height="60" as="geometry" />
        </mxCell>
        <mxCell id="QptM_Gn0P3wr2AVeEs2e-21" style="edgeStyle=orthogonalEdgeStyle;rounded=0;orthogonalLoop=1;jettySize=auto;html=1;entryX=0.5;entryY=0;entryDx=0;entryDy=0;" edge="1" parent="1" source="QptM_Gn0P3wr2AVeEs2e-18" target="QptM_Gn0P3wr2AVeEs2e-19">
          <mxGeometry relative="1" as="geometry">
            <Array as="points">
              <mxPoint x="730" y="1779" />
            </Array>
          </mxGeometry>
        </mxCell>
        <mxCell id="QptM_Gn0P3wr2AVeEs2e-23" value="Yes" style="edgeLabel;html=1;align=center;verticalAlign=middle;resizable=0;points=[];" vertex="1" connectable="0" parent="QptM_Gn0P3wr2AVeEs2e-21">
          <mxGeometry x="-0.5482" y="1" relative="1" as="geometry">
            <mxPoint as="offset" />
          </mxGeometry>
        </mxCell>
        <mxCell id="QptM_Gn0P3wr2AVeEs2e-22" style="edgeStyle=orthogonalEdgeStyle;rounded=0;orthogonalLoop=1;jettySize=auto;html=1;entryX=0.5;entryY=0;entryDx=0;entryDy=0;" edge="1" parent="1" source="QptM_Gn0P3wr2AVeEs2e-18" target="QptM_Gn0P3wr2AVeEs2e-20">
          <mxGeometry relative="1" as="geometry">
            <Array as="points">
              <mxPoint x="368" y="1779" />
            </Array>
          </mxGeometry>
        </mxCell>
        <mxCell id="QptM_Gn0P3wr2AVeEs2e-24" value="No" style="edgeLabel;html=1;align=center;verticalAlign=middle;resizable=0;points=[];" vertex="1" connectable="0" parent="QptM_Gn0P3wr2AVeEs2e-22">
          <mxGeometry x="-0.4914" y="-1" relative="1" as="geometry">
            <mxPoint as="offset" />
          </mxGeometry>
        </mxCell>
        <mxCell id="QptM_Gn0P3wr2AVeEs2e-18" value="if (x &amp;gt; 1)" style="rhombus;whiteSpace=wrap;html=1;" vertex="1" parent="1">
          <mxGeometry x="420" y="1704" width="251" height="149" as="geometry" />
        </mxCell>
        <mxCell id="QptM_Gn0P3wr2AVeEs2e-19" value="printf(&quot;Значение y: %lf\n&quot;, get_y1(a, x));" style="shape=process;whiteSpace=wrap;html=1;backgroundOutline=1;" vertex="1" parent="1">
          <mxGeometry x="611" y="1869" width="239" height="70" as="geometry" />
        </mxCell>
        <mxCell id="QptM_Gn0P3wr2AVeEs2e-20" value="printf(&quot;Значение y: %lf\n&quot;, get_y2(a, x));" style="shape=process;whiteSpace=wrap;html=1;backgroundOutline=1;" vertex="1" parent="1">
          <mxGeometry x="248" y="1869" width="239" height="70" as="geometry" />
        </mxCell>
        <mxCell id="QptM_Gn0P3wr2AVeEs2e-26" value="Конец" style="strokeWidth=1;html=1;shape=mxgraph.flowchart.terminator;whiteSpace=wrap;" vertex="1" parent="1">
          <mxGeometry x="422.75" y="1987" width="245.5" height="60" as="geometry" />
        </mxCell>
        <mxCell id="QptM_Gn0P3wr2AVeEs2e-27" style="edgeStyle=orthogonalEdgeStyle;rounded=0;orthogonalLoop=1;jettySize=auto;html=1;entryX=0.5;entryY=0;entryDx=0;entryDy=0;entryPerimeter=0;" edge="1" parent="1" source="QptM_Gn0P3wr2AVeEs2e-18" target="QptM_Gn0P3wr2AVeEs2e-26">
          <mxGeometry relative="1" as="geometry" />
        </mxCell>
        <mxCell id="QptM_Gn0P3wr2AVeEs2e-32" value="" style="edgeStyle=orthogonalEdgeStyle;rounded=0;orthogonalLoop=1;jettySize=auto;html=1;" edge="1" parent="1" source="QptM_Gn0P3wr2AVeEs2e-28" target="QptM_Gn0P3wr2AVeEs2e-31">
          <mxGeometry relative="1" as="geometry" />
        </mxCell>
        <mxCell id="QptM_Gn0P3wr2AVeEs2e-28" value="&lt;div style=&quot;background-color: rgb(255, 255, 255);&quot;&gt;&lt;pre style=&quot;&quot;&gt;&lt;font style=&quot;&quot;&gt;&lt;font face=&quot;Helvetica&quot;&gt;&lt;span style=&quot;white-space: normal;&quot;&gt;get_y1&lt;/span&gt;&lt;/font&gt;&lt;font face=&quot;JetBrains Mono, monospace&quot; color=&quot;#202020&quot;&gt;&lt;br&gt;&lt;/font&gt;&lt;/font&gt;&lt;/pre&gt;&lt;/div&gt;" style="strokeWidth=1;html=1;shape=mxgraph.flowchart.terminator;whiteSpace=wrap;" vertex="1" parent="1">
          <mxGeometry x="-468" y="2251" width="291" height="60" as="geometry" />
        </mxCell>
        <mxCell id="QptM_Gn0P3wr2AVeEs2e-31" value="&lt;div style=&quot;background-color: rgb(255, 255, 255);&quot;&gt;&lt;pre style=&quot;&quot;&gt;&lt;font style=&quot;&quot;&gt;&lt;font face=&quot;Helvetica&quot;&gt;&lt;span style=&quot;white-space: normal;&quot;&gt;&amp;nbsp;return a * log10(x) + sqrt(fabs(x));&lt;/span&gt;&lt;/font&gt;&lt;font face=&quot;JetBrains Mono, monospace&quot; color=&quot;#202020&quot;&gt;&lt;br&gt;&lt;/font&gt;&lt;/font&gt;&lt;/pre&gt;&lt;/div&gt;" style="strokeWidth=1;html=1;shape=mxgraph.flowchart.terminator;whiteSpace=wrap;" vertex="1" parent="1">
          <mxGeometry x="-468" y="2359" width="291" height="60" as="geometry" />
        </mxCell>
        <mxCell id="QptM_Gn0P3wr2AVeEs2e-33" value="" style="edgeStyle=orthogonalEdgeStyle;rounded=0;orthogonalLoop=1;jettySize=auto;html=1;" edge="1" parent="1" source="QptM_Gn0P3wr2AVeEs2e-34" target="QptM_Gn0P3wr2AVeEs2e-35">
          <mxGeometry relative="1" as="geometry" />
        </mxCell>
        <mxCell id="QptM_Gn0P3wr2AVeEs2e-34" value="&lt;div style=&quot;background-color: rgb(255, 255, 255);&quot;&gt;&lt;pre style=&quot;&quot;&gt;&lt;font style=&quot;&quot;&gt;&lt;font face=&quot;Helvetica&quot;&gt;&lt;span style=&quot;white-space: normal;&quot;&gt;get_y2&lt;/span&gt;&lt;/font&gt;&lt;font face=&quot;JetBrains Mono, monospace&quot; color=&quot;#202020&quot;&gt;&lt;br&gt;&lt;/font&gt;&lt;/font&gt;&lt;/pre&gt;&lt;/div&gt;" style="strokeWidth=1;html=1;shape=mxgraph.flowchart.terminator;whiteSpace=wrap;" vertex="1" parent="1">
          <mxGeometry x="-115" y="2251" width="291" height="60" as="geometry" />
        </mxCell>
        <mxCell id="QptM_Gn0P3wr2AVeEs2e-35" value="&lt;div style=&quot;background-color: rgb(255, 255, 255);&quot;&gt;&lt;pre style=&quot;&quot;&gt;&lt;font style=&quot;&quot;&gt;&lt;font face=&quot;Helvetica&quot;&gt;&lt;span style=&quot;white-space: normal;&quot;&gt;return 2 * a * cos(x) + 3 * pow(x, 3);&lt;/span&gt;&lt;/font&gt;&lt;font face=&quot;JetBrains Mono, monospace&quot; color=&quot;#202020&quot;&gt;&lt;br&gt;&lt;/font&gt;&lt;/font&gt;&lt;/pre&gt;&lt;/div&gt;" style="strokeWidth=1;html=1;shape=mxgraph.flowchart.terminator;whiteSpace=wrap;" vertex="1" parent="1">
          <mxGeometry x="-115" y="2359" width="291" height="60" as="geometry" />
        </mxCell>
      </root>
    </mxGraphModel>
  </diagram>
</mxfile>
